<svg width="77" height="11" viewBox="0 0 77 11" fill="none" xmlns="http://www.w3.org/2000/svg">
<path fill-rule="evenodd" clip-rule="evenodd" d="M70.6511 10.7721V0.24309H76.6462V1.50415H72.0259V4.63399H76.136V5.86464H72.0259V9.51103H77.0005V10.7721H70.6511ZM62.7145 9.31354C62.62 9.07045 62.4948 8.76151 62.3389 8.38674C62.183 8.01198 62.0153 7.60683 61.8357 7.17127C61.6562 6.73572 61.4649 6.28753 61.2618 5.82667C61.0586 5.36581 60.8673 4.93026 60.6878 4.52004C60.5083 4.10982 60.3405 3.74265 60.1847 3.41852C60.0288 3.09439 59.9036 2.84622 59.8091 2.67404C59.7051 3.86925 59.6201 5.16322 59.554 6.55592C59.4878 7.94868 59.4311 9.35405 59.3839 10.7721H58.0375C58.0753 9.86049 58.1178 8.9413 58.1651 8.0145C58.2123 7.08771 58.2666 6.17612 58.328 5.27973C58.3894 4.38331 58.4556 3.5097 58.5264 2.65885C58.5973 1.80804 58.6753 1.00277 58.7603 0.24309H59.965C60.2201 0.68878 60.4941 1.21546 60.787 1.8232C61.0799 2.43094 61.3728 3.06652 61.6657 3.72998C61.9586 4.39343 62.2421 5.05687 62.516 5.72031C62.7901 6.38375 63.0404 6.98896 63.2672 7.53592C63.494 6.98895 63.7443 6.38374 64.0184 5.72031C64.2924 5.05687 64.5758 4.39344 64.8687 3.72998C65.1616 3.06651 65.4545 2.43094 65.7474 1.8232C66.0403 1.21546 66.3143 0.68879 66.5694 0.24309H67.7741C68.0954 3.63629 68.3363 7.14594 68.4969 10.7721H67.1505C67.1033 9.35405 67.0466 7.94868 66.9804 6.55592C66.9143 5.16322 66.8293 3.86924 66.7253 2.67404C66.6309 2.84622 66.5057 3.09439 66.3497 3.41852C66.1939 3.74265 66.0261 4.10982 65.8466 4.52004C65.6671 4.93026 65.4758 5.3658 65.2726 5.82667C65.0695 6.28753 64.8782 6.73573 64.6986 7.17127C64.5191 7.60683 64.3514 8.01198 64.1955 8.38674C64.0396 8.76151 63.9144 9.07046 63.8199 9.31354H62.7145ZM54.1825 6.86742C53.8802 5.98619 53.5802 5.13283 53.2826 4.3073C52.9849 3.48181 52.6755 2.68924 52.3543 1.92958C52.0236 2.68924 51.7094 3.48181 51.4118 4.3073C51.1142 5.13283 50.8189 5.98619 50.526 6.86742H54.1825ZM55.4722 10.7721C55.3116 10.3163 55.1604 9.8681 55.0187 9.42749C54.877 8.98688 54.7305 8.53867 54.5794 8.08287H50.1291L49.2363 10.7721H47.8048C48.1828 9.65791 48.5371 8.62732 48.8678 7.68027C49.1985 6.7332 49.5221 5.83428 49.8386 4.9834C50.1551 4.13259 50.4693 3.31975 50.7811 2.54491C51.0929 1.77002 51.4189 1.00277 51.759 0.24309H53.0204C53.3605 1.00276 53.6865 1.77002 53.9983 2.54491C54.3101 3.31975 54.6242 4.13259 54.9408 4.9834C55.2573 5.83428 55.5809 6.7332 55.9116 7.68027C56.2423 8.62732 56.5966 9.65792 56.9745 10.7721H55.4722ZM42.32 1.42816C41.7342 1.42816 41.2854 1.44339 40.9736 1.47377V5.43924H41.9515C42.424 5.43924 42.8491 5.41391 43.2271 5.36327C43.605 5.31261 43.9239 5.21642 44.1837 5.0746C44.4436 4.93278 44.6443 4.73274 44.7861 4.47446C44.9278 4.21616 44.9987 3.87433 44.9987 3.44892C44.9987 3.05389 44.9278 2.72468 44.7861 2.46133C44.6443 2.19799 44.453 1.99035 44.2121 1.83841C43.9711 1.68648 43.6877 1.58014 43.3617 1.51936C43.0357 1.45858 42.6885 1.42817 42.32 1.42817V1.42816ZM44.4034 6.36603C44.5546 6.56859 44.7459 6.83446 44.9774 7.16367C45.2089 7.49286 45.4474 7.85749 45.6931 8.25759C45.9388 8.65771 46.1821 9.07551 46.423 9.51104C46.6639 9.94662 46.8694 10.367 47.0395 10.7721H45.5372C45.3482 10.3872 45.1427 9.99723 44.9207 9.60221C44.6987 9.20718 44.4743 8.82989 44.2475 8.47031C44.0207 8.11072 43.7963 7.77394 43.5743 7.45995C43.3523 7.14594 43.1515 6.87249 42.972 6.63952C42.8491 6.64965 42.7239 6.65472 42.5964 6.65472C42.4688 6.65472 42.3389 6.65472 42.2066 6.65472H40.9736V10.7721H39.5989V0.39503C39.9863 0.29376 40.4185 0.2254 40.8957 0.18992C41.3728 0.15447 41.8098 0.13676 42.2066 0.13676C43.5861 0.13676 44.6372 0.41531 45.3601 0.97239C46.0828 1.52949 46.4443 2.36005 46.4443 3.4641C46.4443 4.16297 46.2718 4.76059 45.927 5.25689C45.5821 5.75324 45.0742 6.12295 44.4034 6.36604V6.36603ZM31.9882 10.7721V0.24309H37.9123V1.50415H33.3629V4.67957H37.4021V5.92542H33.3629V10.7721H31.9882ZM30.5425 9.49585V10.7721H24.6325V0.24309H26.0073V9.49585H30.5425ZM23.187 9.49585V10.7721H17.277V0.24309H18.6517V9.49585H23.187ZM9.18437 10.7721V0.24309H15.1794V1.50415H10.5591V4.63399H14.6692V5.86464H10.5591V9.51103H15.5337V10.7721H9.18437ZM4.62078 11C3.93104 11 3.30272 10.8784 2.73582 10.6354C2.16891 10.3922 1.68232 10.0378 1.27603 9.57181C0.869748 9.1059 0.555588 8.53107 0.333548 7.84737C0.111508 7.16367 0.000488281 6.38123 0.000488281 5.50002C0.000488281 4.61879 0.125678 3.83632 0.376068 3.15262C0.626448 2.46893 0.964228 1.89411 1.38941 1.42816C1.81459 0.96225 2.31063 0.60773 2.87754 0.36465C3.44445 0.12153 4.04915 0 4.69164 0C5.09793 0 5.46405 0.03038 5.79002 0.09116C6.11599 0.15195 6.39944 0.22284 6.64038 0.30387C6.88131 0.38491 7.07737 0.46593 7.22854 0.54697C7.37971 0.62801 7.48365 0.68879 7.54034 0.72928L7.14351 1.94476C7.05847 1.88398 6.93564 1.81813 6.77502 1.74725C6.61439 1.67633 6.43251 1.60545 6.22937 1.53454C6.02623 1.46363 5.8042 1.40537 5.56326 1.3598C5.32232 1.31422 5.07903 1.29143 4.83337 1.29143C4.31371 1.29143 3.84601 1.38768 3.43028 1.58013C3.01455 1.77256 2.66024 2.05111 2.36733 2.41576C2.07443 2.78038 1.85003 3.22353 1.69413 3.74517C1.53823 4.26684 1.46028 4.85175 1.46028 5.50002C1.46028 6.12801 1.52878 6.70028 1.66578 7.21686C1.80278 7.73342 2.00828 8.17658 2.28229 8.54627C2.5563 8.91599 2.8988 9.20212 3.30981 9.40471C3.72081 9.60729 4.20032 9.70856 4.74833 9.70856C5.38137 9.70856 5.90576 9.63767 6.32149 9.49585C6.73722 9.35405 7.04902 9.22745 7.25689 9.11603L7.6112 10.3315C7.54506 10.3821 7.42696 10.4454 7.25689 10.5214C7.08682 10.5974 6.87423 10.6708 6.61912 10.7417C6.36401 10.8126 6.06639 10.8734 5.72624 10.924C5.3861 10.9747 5.01761 11 4.62078 11Z" fill="white"/>
</svg>
