<svg width="38" height="11" viewBox="0 0 38 11" fill="none" xmlns="http://www.w3.org/2000/svg">
<path d="M11.752 0.874C11.8647 0.874 11.96 0.908666 12.038 0.978C12.1247 1.03867 12.168 1.134 12.168 1.264C12.168 1.30733 12.1593 1.36367 12.142 1.433L9.269 9.753C9.243 9.831 9.19533 9.89167 9.126 9.935C9.05667 9.97833 8.98733 10 8.918 10C8.83133 10 8.75333 9.98267 8.684 9.948C8.61467 9.90467 8.56267 9.83967 8.528 9.753L6.227 4.059L6.331 4.085L4.03 9.753C3.99533 9.83967 3.939 9.90467 3.861 9.948C3.79167 9.98267 3.718 10 3.64 10C3.57067 10 3.50133 9.97833 3.432 9.935C3.37133 9.89167 3.328 9.831 3.302 9.753L0.429 1.433C0.403 1.36367 0.39 1.31167 0.39 1.277C0.39 1.147 0.437667 1.04733 0.533 0.978C0.628333 0.908666 0.723667 0.874 0.819 0.874C0.905667 0.874 0.983667 0.895666 1.053 0.939C1.12233 0.982333 1.17 1.043 1.196 1.121L3.809 8.739L3.666 8.752L5.928 3.11C5.954 3.032 5.99733 2.97133 6.058 2.928C6.12733 2.876 6.20533 2.85433 6.292 2.863C6.37867 2.85433 6.45233 2.876 6.513 2.928C6.58233 2.97133 6.63433 3.032 6.669 3.11L8.905 8.726L8.762 8.778L11.362 1.121C11.388 1.043 11.4357 0.982333 11.505 0.939C11.5743 0.895666 11.6567 0.874 11.752 0.874ZM18.9154 3.357C19.0281 3.357 19.1191 3.396 19.1884 3.474C19.2664 3.552 19.3054 3.64733 19.3054 3.76V9.61C19.3054 9.714 19.2664 9.805 19.1884 9.883C19.1104 9.961 19.0194 10 18.9154 10C18.8027 10 18.7074 9.961 18.6294 9.883C18.5601 9.805 18.5254 9.714 18.5254 9.61V8.063L18.7464 7.959C18.7464 8.20167 18.6771 8.44867 18.5384 8.7C18.4084 8.95133 18.2264 9.18533 17.9924 9.402C17.7584 9.61867 17.4811 9.79633 17.1604 9.935C16.8484 10.065 16.5104 10.13 16.1464 10.13C15.5571 10.13 15.0284 9.97833 14.5604 9.675C14.1011 9.37167 13.7371 8.95567 13.4684 8.427C13.2084 7.89833 13.0784 7.30467 13.0784 6.646C13.0784 5.97 13.2127 5.37633 13.4814 4.865C13.7501 4.345 14.1141 3.93767 14.5734 3.643C15.0327 3.34833 15.5527 3.201 16.1334 3.201C16.5061 3.201 16.8527 3.266 17.1734 3.396C17.5027 3.526 17.7887 3.70367 18.0314 3.929C18.2741 4.15433 18.4604 4.41433 18.5904 4.709C18.7291 4.995 18.7984 5.294 18.7984 5.606L18.5254 5.411V3.76C18.5254 3.64733 18.5601 3.552 18.6294 3.474C18.7074 3.396 18.8027 3.357 18.9154 3.357ZM16.2114 9.402C16.6707 9.402 17.0781 9.285 17.4334 9.051C17.7887 8.80833 18.0661 8.479 18.2654 8.063C18.4734 7.63833 18.5774 7.166 18.5774 6.646C18.5774 6.13467 18.4734 5.67533 18.2654 5.268C18.0661 4.86067 17.7887 4.53567 17.4334 4.293C17.0781 4.05033 16.6707 3.929 16.2114 3.929C15.7607 3.929 15.3534 4.046 14.9894 4.28C14.6341 4.514 14.3524 4.83467 14.1444 5.242C13.9451 5.64933 13.8454 6.11733 13.8454 6.646C13.8454 7.166 13.9451 7.63833 14.1444 8.063C14.3524 8.479 14.6341 8.80833 14.9894 9.051C15.3447 9.285 15.7521 9.402 16.2114 9.402ZM22.2102 9.61C22.2102 9.714 22.1712 9.805 22.0932 9.883C22.0152 9.961 21.9242 10 21.8202 10C21.7075 10 21.6122 9.961 21.5342 9.883C21.4649 9.805 21.4302 9.714 21.4302 9.61V0.77C21.4302 0.665999 21.4692 0.574999 21.5472 0.497C21.6252 0.419 21.7162 0.38 21.8202 0.38C21.9329 0.38 22.0239 0.419 22.0932 0.497C22.1712 0.574999 22.2102 0.665999 22.2102 0.77V9.61ZM25.2063 9.61C25.2063 9.714 25.1673 9.805 25.0893 9.883C25.0113 9.961 24.9203 10 24.8163 10C24.7036 10 24.6083 9.961 24.5303 9.883C24.461 9.805 24.4263 9.714 24.4263 9.61V0.77C24.4263 0.665999 24.4653 0.574999 24.5433 0.497C24.6213 0.419 24.7123 0.38 24.8163 0.38C24.929 0.38 25.02 0.419 25.0893 0.497C25.1673 0.574999 25.2063 0.665999 25.2063 0.77V9.61ZM30.2204 10.13C29.5531 10.13 28.9638 9.987 28.4524 9.701C27.9411 9.415 27.5424 9.01633 27.2564 8.505C26.9704 7.99367 26.8274 7.39567 26.8274 6.711C26.8274 5.97433 26.9704 5.346 27.2564 4.826C27.5511 4.306 27.9281 3.90733 28.3874 3.63C28.8554 3.344 29.3494 3.201 29.8694 3.201C30.2508 3.201 30.6191 3.27033 30.9744 3.409C31.3384 3.539 31.6591 3.73833 31.9364 4.007C32.2224 4.267 32.4478 4.58767 32.6124 4.969C32.7858 5.35033 32.8811 5.79233 32.8984 6.295C32.8898 6.399 32.8464 6.49 32.7684 6.568C32.6904 6.63733 32.5994 6.672 32.4954 6.672H27.2824L27.1264 5.97H32.2484L32.0794 6.126V5.866C32.0448 5.45867 31.9148 5.112 31.6894 4.826C31.4641 4.54 31.1911 4.32333 30.8704 4.176C30.5498 4.02867 30.2161 3.955 29.8694 3.955C29.6094 3.955 29.3408 4.007 29.0634 4.111C28.7948 4.215 28.5478 4.37967 28.3224 4.605C28.1058 4.82167 27.9281 5.10333 27.7894 5.45C27.6508 5.788 27.5814 6.191 27.5814 6.659C27.5814 7.17033 27.6854 7.634 27.8934 8.05C28.1014 8.466 28.4004 8.79533 28.7904 9.038C29.1891 9.28067 29.6614 9.402 30.2074 9.402C30.5108 9.402 30.7838 9.35867 31.0264 9.272C31.2691 9.18533 31.4814 9.07267 31.6634 8.934C31.8454 8.78667 31.9971 8.635 32.1184 8.479C32.2138 8.401 32.3091 8.362 32.4044 8.362C32.4911 8.362 32.5648 8.39667 32.6254 8.466C32.6948 8.53533 32.7294 8.61333 32.7294 8.7C32.7294 8.804 32.6861 8.895 32.5994 8.973C32.3394 9.285 32.0014 9.558 31.5854 9.792C31.1694 10.0173 30.7144 10.13 30.2204 10.13ZM34.139 3.383H37.168C37.272 3.383 37.3587 3.422 37.428 3.5C37.4973 3.56933 37.532 3.656 37.532 3.76C37.532 3.85533 37.4973 3.93767 37.428 4.007C37.3587 4.07633 37.272 4.111 37.168 4.111H34.139C34.035 4.111 33.944 4.07633 33.866 4.007C33.7967 3.929 33.762 3.84233 33.762 3.747C33.762 3.643 33.7967 3.55633 33.866 3.487C33.944 3.41767 34.035 3.383 34.139 3.383ZM35.478 1.55C35.5907 1.55 35.6817 1.589 35.751 1.667C35.829 1.745 35.868 1.836 35.868 1.94V8.466C35.868 8.70867 35.8983 8.89067 35.959 9.012C36.0283 9.13333 36.115 9.21567 36.219 9.259C36.323 9.29367 36.427 9.311 36.531 9.311C36.6003 9.311 36.661 9.30233 36.713 9.285C36.7737 9.259 36.8387 9.246 36.908 9.246C36.986 9.246 37.051 9.27633 37.103 9.337C37.1637 9.39767 37.194 9.47567 37.194 9.571C37.194 9.69233 37.1247 9.79633 36.986 9.883C36.8473 9.961 36.6827 10 36.492 10C36.414 10 36.297 9.99567 36.141 9.987C35.985 9.96967 35.8247 9.922 35.66 9.844C35.4953 9.75733 35.3567 9.61 35.244 9.402C35.14 9.194 35.088 8.895 35.088 8.505V1.94C35.088 1.836 35.1227 1.745 35.192 1.667C35.27 1.589 35.3653 1.55 35.478 1.55Z" fill="white"/>
</svg>
